<mxfile host="app.diagrams.net" modified="2020-11-12T14:38:39.776Z" agent="5.0 (Windows NT 10.0; Win64; x64) AppleWebKit/537.36 (KHTML, like Gecko) Chrome/86.0.4240.183 Safari/537.36" etag="TsgqS5K4kZ2mGU4wgnZB" version="13.9.7" type="github">
  <diagram id="76KLX1Tyw8OJ2HWkUYvw" name="Page-1">
    <mxGraphModel dx="1422" dy="705" grid="1" gridSize="10" guides="1" tooltips="1" connect="1" arrows="1" fold="1" page="1" pageScale="1" pageWidth="827" pageHeight="1169" math="0" shadow="0">
      <root>
        <mxCell id="0" />
        <mxCell id="1" parent="0" />
        <mxCell id="SeXQM4YsFDkqSfDYHbvO-1" value="" style="rounded=0;whiteSpace=wrap;html=1;" vertex="1" parent="1">
          <mxGeometry x="170" y="40" width="540" height="630" as="geometry" />
        </mxCell>
        <mxCell id="SeXQM4YsFDkqSfDYHbvO-2" value="" style="rounded=0;whiteSpace=wrap;html=1;" vertex="1" parent="1">
          <mxGeometry x="30" y="40" width="120" height="630" as="geometry" />
        </mxCell>
        <mxCell id="SeXQM4YsFDkqSfDYHbvO-3" value="Event Name Input Form" style="rounded=0;whiteSpace=wrap;html=1;" vertex="1" parent="1">
          <mxGeometry x="220" y="90" width="430" height="30" as="geometry" />
        </mxCell>
        <mxCell id="SeXQM4YsFDkqSfDYHbvO-5" value="Selected&lt;br&gt;Event Date" style="rounded=0;whiteSpace=wrap;html=1;" vertex="1" parent="1">
          <mxGeometry x="220" y="250" width="180" height="100" as="geometry" />
        </mxCell>
        <mxCell id="SeXQM4YsFDkqSfDYHbvO-7" value="Map" style="rounded=0;whiteSpace=wrap;html=1;" vertex="1" parent="1">
          <mxGeometry x="410" y="400" width="240" height="100" as="geometry" />
        </mxCell>
        <mxCell id="SeXQM4YsFDkqSfDYHbvO-9" value="Map Search Form" style="rounded=0;whiteSpace=wrap;html=1;" vertex="1" parent="1">
          <mxGeometry x="220" y="360" width="430" height="30" as="geometry" />
        </mxCell>
        <mxCell id="SeXQM4YsFDkqSfDYHbvO-16" value="Event Description text box" style="rounded=0;whiteSpace=wrap;html=1;" vertex="1" parent="1">
          <mxGeometry x="220" y="130" width="430" height="110" as="geometry" />
        </mxCell>
        <mxCell id="SeXQM4YsFDkqSfDYHbvO-18" value="Event Calendar" style="rounded=0;whiteSpace=wrap;html=1;" vertex="1" parent="1">
          <mxGeometry x="412.5" y="250" width="237.5" height="100" as="geometry" />
        </mxCell>
        <mxCell id="SeXQM4YsFDkqSfDYHbvO-21" value="Searched&lt;br&gt;Location" style="rounded=0;whiteSpace=wrap;html=1;" vertex="1" parent="1">
          <mxGeometry x="220" y="400" width="180" height="100" as="geometry" />
        </mxCell>
        <mxCell id="SeXQM4YsFDkqSfDYHbvO-22" value="Store Name" style="rounded=0;whiteSpace=wrap;html=1;" vertex="1" parent="1">
          <mxGeometry x="220" y="510" width="430" height="30" as="geometry" />
        </mxCell>
        <mxCell id="SeXQM4YsFDkqSfDYHbvO-23" value="Store Location" style="rounded=0;whiteSpace=wrap;html=1;" vertex="1" parent="1">
          <mxGeometry x="220" y="550" width="430" height="30" as="geometry" />
        </mxCell>
        <mxCell id="SeXQM4YsFDkqSfDYHbvO-24" value="Store URL" style="rounded=0;whiteSpace=wrap;html=1;" vertex="1" parent="1">
          <mxGeometry x="220" y="590" width="430" height="30" as="geometry" />
        </mxCell>
        <mxCell id="SeXQM4YsFDkqSfDYHbvO-25" value="link register page" style="rounded=0;whiteSpace=wrap;html=1;" vertex="1" parent="1">
          <mxGeometry x="40" y="50" width="100" height="30" as="geometry" />
        </mxCell>
        <mxCell id="SeXQM4YsFDkqSfDYHbvO-26" value="clear&lt;span style=&quot;color: rgba(0 , 0 , 0 , 0) ; font-family: monospace ; font-size: 0px&quot;&gt;%3CmxGraphModel%3E%3Croot%3E%3CmxCell%20id%3D%220%22%2F%3E%3CmxCell%20id%3D%221%22%20parent%3D%220%22%2F%3E%3CmxCell%20id%3D%222%22%20value%3D%22link%20register%20page%22%20style%3D%22rounded%3D0%3BwhiteSpace%3Dwrap%3Bhtml%3D1%3B%22%20vertex%3D%221%22%20parent%3D%221%22%3E%3CmxGeometry%20x%3D%2240%22%20y%3D%2250%22%20width%3D%22100%22%20height%3D%2230%22%20as%3D%22geometry%22%2F%3E%3C%2FmxCell%3E%3C%2Froot%3E%3C%2FmxGraphModel%3E&lt;/span&gt;" style="rounded=0;whiteSpace=wrap;html=1;" vertex="1" parent="1">
          <mxGeometry x="320" y="630" width="100" height="30" as="geometry" />
        </mxCell>
        <mxCell id="SeXQM4YsFDkqSfDYHbvO-27" value="register" style="rounded=0;whiteSpace=wrap;html=1;" vertex="1" parent="1">
          <mxGeometry x="430" y="630" width="100" height="30" as="geometry" />
        </mxCell>
        <mxCell id="SeXQM4YsFDkqSfDYHbvO-28" value="registered event&lt;br&gt;by cookie" style="rounded=0;whiteSpace=wrap;html=1;" vertex="1" parent="1">
          <mxGeometry x="40" y="110" width="100" height="30" as="geometry" />
        </mxCell>
        <mxCell id="SeXQM4YsFDkqSfDYHbvO-29" value="registered event&lt;br&gt;by cookie" style="rounded=0;whiteSpace=wrap;html=1;" vertex="1" parent="1">
          <mxGeometry x="40" y="150" width="100" height="30" as="geometry" />
        </mxCell>
        <mxCell id="SeXQM4YsFDkqSfDYHbvO-30" value="registered event&lt;br&gt;by cookie" style="rounded=0;whiteSpace=wrap;html=1;" vertex="1" parent="1">
          <mxGeometry x="40" y="190" width="100" height="30" as="geometry" />
        </mxCell>
        <mxCell id="SeXQM4YsFDkqSfDYHbvO-31" value="&lt;font style=&quot;font-size: 24px&quot;&gt;Register EventPage&lt;/font&gt;" style="text;html=1;strokeColor=none;fillColor=none;align=center;verticalAlign=middle;whiteSpace=wrap;rounded=0;" vertex="1" parent="1">
          <mxGeometry x="170" y="40" width="230" height="30" as="geometry" />
        </mxCell>
        <mxCell id="SeXQM4YsFDkqSfDYHbvO-34" value="" style="rounded=0;whiteSpace=wrap;html=1;" vertex="1" parent="1">
          <mxGeometry x="180" y="910" width="540" height="960" as="geometry" />
        </mxCell>
        <mxCell id="SeXQM4YsFDkqSfDYHbvO-35" value="&lt;font style=&quot;font-size: 24px&quot;&gt;Regstered Event Reference Page&lt;/font&gt;" style="text;html=1;align=center;verticalAlign=middle;resizable=0;points=[];autosize=1;" vertex="1" parent="1">
          <mxGeometry x="195" y="920" width="370" height="20" as="geometry" />
        </mxCell>
        <mxCell id="SeXQM4YsFDkqSfDYHbvO-36" value="Event Name Input Form" style="rounded=0;whiteSpace=wrap;html=1;" vertex="1" parent="1">
          <mxGeometry x="230" y="990" width="430" height="30" as="geometry" />
        </mxCell>
        <mxCell id="SeXQM4YsFDkqSfDYHbvO-37" value="Event Description text box" style="rounded=0;whiteSpace=wrap;html=1;" vertex="1" parent="1">
          <mxGeometry x="230" y="1030" width="430" height="110" as="geometry" />
        </mxCell>
        <mxCell id="SeXQM4YsFDkqSfDYHbvO-38" value="Map" style="rounded=0;whiteSpace=wrap;html=1;" vertex="1" parent="1">
          <mxGeometry x="230" y="1160" width="430" height="100" as="geometry" />
        </mxCell>
        <mxCell id="SeXQM4YsFDkqSfDYHbvO-39" value="Store Name" style="rounded=0;whiteSpace=wrap;html=1;" vertex="1" parent="1">
          <mxGeometry x="230" y="1280" width="430" height="30" as="geometry" />
        </mxCell>
        <mxCell id="SeXQM4YsFDkqSfDYHbvO-40" value="Store Location" style="rounded=0;whiteSpace=wrap;html=1;" vertex="1" parent="1">
          <mxGeometry x="230" y="1320" width="430" height="30" as="geometry" />
        </mxCell>
        <mxCell id="SeXQM4YsFDkqSfDYHbvO-41" value="Store URL" style="rounded=0;whiteSpace=wrap;html=1;" vertex="1" parent="1">
          <mxGeometry x="230" y="1360" width="430" height="30" as="geometry" />
        </mxCell>
        <mxCell id="SeXQM4YsFDkqSfDYHbvO-42" value="Attendance Matrix&lt;br&gt;row: date&lt;br&gt;column: 〇　×　△、name1, name2, ..." style="shape=internalStorage;whiteSpace=wrap;html=1;backgroundOutline=1;" vertex="1" parent="1">
          <mxGeometry x="230" y="1410" width="430" height="190" as="geometry" />
        </mxCell>
        <mxCell id="SeXQM4YsFDkqSfDYHbvO-43" value="edit button" style="rounded=0;whiteSpace=wrap;html=1;" vertex="1" parent="1">
          <mxGeometry x="565" y="950" width="100" height="30" as="geometry" />
        </mxCell>
        <mxCell id="SeXQM4YsFDkqSfDYHbvO-44" value="" style="rounded=0;whiteSpace=wrap;html=1;" vertex="1" parent="1">
          <mxGeometry x="250" y="1890" width="430" height="240" as="geometry" />
        </mxCell>
        <mxCell id="SeXQM4YsFDkqSfDYHbvO-45" value="Attend Button" style="rounded=0;whiteSpace=wrap;html=1;" vertex="1" parent="1">
          <mxGeometry x="230" y="1620" width="430" height="30" as="geometry" />
        </mxCell>
        <mxCell id="SeXQM4YsFDkqSfDYHbvO-47" value="" style="shape=flexArrow;endArrow=classic;html=1;" edge="1" parent="1">
          <mxGeometry width="50" height="50" relative="1" as="geometry">
            <mxPoint x="300" y="1660" as="sourcePoint" />
            <mxPoint x="300" y="1890" as="targetPoint" />
          </mxGeometry>
        </mxCell>
        <mxCell id="SeXQM4YsFDkqSfDYHbvO-48" value="appear form" style="text;html=1;strokeColor=none;fillColor=none;align=center;verticalAlign=middle;whiteSpace=wrap;rounded=0;" vertex="1" parent="1">
          <mxGeometry x="310" y="1750" width="90" height="20" as="geometry" />
        </mxCell>
        <mxCell id="SeXQM4YsFDkqSfDYHbvO-49" value="name" style="rounded=0;whiteSpace=wrap;html=1;" vertex="1" parent="1">
          <mxGeometry x="285" y="1914" width="360" height="30" as="geometry" />
        </mxCell>
        <mxCell id="SeXQM4YsFDkqSfDYHbvO-50" value="event date: 〇　×　△" style="rounded=0;whiteSpace=wrap;html=1;" vertex="1" parent="1">
          <mxGeometry x="285" y="1950" width="360" height="80" as="geometry" />
        </mxCell>
        <mxCell id="SeXQM4YsFDkqSfDYHbvO-51" value="comment" style="rounded=0;whiteSpace=wrap;html=1;" vertex="1" parent="1">
          <mxGeometry x="285" y="2040" width="360" height="30" as="geometry" />
        </mxCell>
        <mxCell id="SeXQM4YsFDkqSfDYHbvO-52" value="register" style="rounded=0;whiteSpace=wrap;html=1;" vertex="1" parent="1">
          <mxGeometry x="400" y="2090" width="155" height="30" as="geometry" />
        </mxCell>
        <mxCell id="SeXQM4YsFDkqSfDYHbvO-53" value="" style="shape=flexArrow;endArrow=classic;html=1;" edge="1" parent="1">
          <mxGeometry width="50" height="50" relative="1" as="geometry">
            <mxPoint x="510" y="1535" as="sourcePoint" />
            <mxPoint x="510" y="1890" as="targetPoint" />
          </mxGeometry>
        </mxCell>
        <mxCell id="SeXQM4YsFDkqSfDYHbvO-54" value="appear form" style="text;html=1;strokeColor=none;fillColor=none;align=center;verticalAlign=middle;whiteSpace=wrap;rounded=0;" vertex="1" parent="1">
          <mxGeometry x="520" y="1700" width="90" height="20" as="geometry" />
        </mxCell>
        <mxCell id="SeXQM4YsFDkqSfDYHbvO-57" value="" style="shape=flexArrow;endArrow=classic;html=1;" edge="1" parent="1">
          <mxGeometry width="50" height="50" relative="1" as="geometry">
            <mxPoint x="89.5" y="220" as="sourcePoint" />
            <mxPoint x="160" y="770" as="targetPoint" />
            <Array as="points">
              <mxPoint x="90" y="770" />
            </Array>
          </mxGeometry>
        </mxCell>
        <mxCell id="SeXQM4YsFDkqSfDYHbvO-58" value="" style="rounded=0;whiteSpace=wrap;html=1;" vertex="1" parent="1">
          <mxGeometry x="170" y="710" width="540" height="160" as="geometry" />
        </mxCell>
        <mxCell id="SeXQM4YsFDkqSfDYHbvO-59" value="registered url" style="rounded=0;whiteSpace=wrap;html=1;" vertex="1" parent="1">
          <mxGeometry x="245" y="750" width="380" height="30" as="geometry" />
        </mxCell>
        <mxCell id="SeXQM4YsFDkqSfDYHbvO-60" value="clipboard copy button" style="rounded=0;whiteSpace=wrap;html=1;" vertex="1" parent="1">
          <mxGeometry x="460" y="810" width="130" height="30" as="geometry" />
        </mxCell>
        <mxCell id="SeXQM4YsFDkqSfDYHbvO-61" value="link registered event page" style="rounded=0;whiteSpace=wrap;html=1;" vertex="1" parent="1">
          <mxGeometry x="290" y="810" width="140" height="30" as="geometry" />
        </mxCell>
        <mxCell id="SeXQM4YsFDkqSfDYHbvO-62" value="" style="shape=flexArrow;endArrow=classic;html=1;" edge="1" parent="1">
          <mxGeometry width="50" height="50" relative="1" as="geometry">
            <mxPoint x="354.5" y="840" as="sourcePoint" />
            <mxPoint x="354.5" y="910" as="targetPoint" />
          </mxGeometry>
        </mxCell>
        <mxCell id="SeXQM4YsFDkqSfDYHbvO-91" value="" style="rounded=0;whiteSpace=wrap;html=1;" vertex="1" parent="1">
          <mxGeometry x="165" y="2160" width="540" height="630" as="geometry" />
        </mxCell>
        <mxCell id="SeXQM4YsFDkqSfDYHbvO-92" value="Event Name Input Form" style="rounded=0;whiteSpace=wrap;html=1;" vertex="1" parent="1">
          <mxGeometry x="215" y="2210" width="430" height="30" as="geometry" />
        </mxCell>
        <mxCell id="SeXQM4YsFDkqSfDYHbvO-93" value="Selected&lt;br&gt;Event Date" style="rounded=0;whiteSpace=wrap;html=1;" vertex="1" parent="1">
          <mxGeometry x="215" y="2420" width="180" height="50" as="geometry" />
        </mxCell>
        <mxCell id="SeXQM4YsFDkqSfDYHbvO-94" value="Map" style="rounded=0;whiteSpace=wrap;html=1;" vertex="1" parent="1">
          <mxGeometry x="405" y="2520" width="240" height="100" as="geometry" />
        </mxCell>
        <mxCell id="SeXQM4YsFDkqSfDYHbvO-95" value="Map Search Form" style="rounded=0;whiteSpace=wrap;html=1;" vertex="1" parent="1">
          <mxGeometry x="215" y="2480" width="430" height="30" as="geometry" />
        </mxCell>
        <mxCell id="SeXQM4YsFDkqSfDYHbvO-96" value="Event Description text box" style="rounded=0;whiteSpace=wrap;html=1;" vertex="1" parent="1">
          <mxGeometry x="215" y="2250" width="430" height="110" as="geometry" />
        </mxCell>
        <mxCell id="SeXQM4YsFDkqSfDYHbvO-97" value="Event Calendar" style="rounded=0;whiteSpace=wrap;html=1;" vertex="1" parent="1">
          <mxGeometry x="407.5" y="2370" width="237.5" height="100" as="geometry" />
        </mxCell>
        <mxCell id="SeXQM4YsFDkqSfDYHbvO-98" value="Searched&lt;br&gt;Location" style="rounded=0;whiteSpace=wrap;html=1;" vertex="1" parent="1">
          <mxGeometry x="215" y="2520" width="180" height="100" as="geometry" />
        </mxCell>
        <mxCell id="SeXQM4YsFDkqSfDYHbvO-99" value="Store Name" style="rounded=0;whiteSpace=wrap;html=1;" vertex="1" parent="1">
          <mxGeometry x="215" y="2630" width="430" height="30" as="geometry" />
        </mxCell>
        <mxCell id="SeXQM4YsFDkqSfDYHbvO-100" value="Store Location" style="rounded=0;whiteSpace=wrap;html=1;" vertex="1" parent="1">
          <mxGeometry x="215" y="2670" width="430" height="30" as="geometry" />
        </mxCell>
        <mxCell id="SeXQM4YsFDkqSfDYHbvO-101" value="Store URL" style="rounded=0;whiteSpace=wrap;html=1;" vertex="1" parent="1">
          <mxGeometry x="215" y="2710" width="430" height="30" as="geometry" />
        </mxCell>
        <mxCell id="SeXQM4YsFDkqSfDYHbvO-102" value="clear&lt;span style=&quot;color: rgba(0 , 0 , 0 , 0) ; font-family: monospace ; font-size: 0px&quot;&gt;%3CmxGraphModel%3E%3Croot%3E%3CmxCell%20id%3D%220%22%2F%3E%3CmxCell%20id%3D%221%22%20parent%3D%220%22%2F%3E%3CmxCell%20id%3D%222%22%20value%3D%22link%20register%20page%22%20style%3D%22rounded%3D0%3BwhiteSpace%3Dwrap%3Bhtml%3D1%3B%22%20vertex%3D%221%22%20parent%3D%221%22%3E%3CmxGeometry%20x%3D%2240%22%20y%3D%2250%22%20width%3D%22100%22%20height%3D%2230%22%20as%3D%22geometry%22%2F%3E%3C%2FmxCell%3E%3C%2Froot%3E%3C%2FmxGraphModel%3E&lt;/span&gt;" style="rounded=0;whiteSpace=wrap;html=1;" vertex="1" parent="1">
          <mxGeometry x="315" y="2750" width="100" height="30" as="geometry" />
        </mxCell>
        <mxCell id="SeXQM4YsFDkqSfDYHbvO-103" value="register" style="rounded=0;whiteSpace=wrap;html=1;" vertex="1" parent="1">
          <mxGeometry x="425" y="2750" width="100" height="30" as="geometry" />
        </mxCell>
        <mxCell id="SeXQM4YsFDkqSfDYHbvO-104" value="&lt;font style=&quot;font-size: 24px&quot;&gt;Edit Event Page&lt;/font&gt;" style="text;html=1;strokeColor=none;fillColor=none;align=center;verticalAlign=middle;whiteSpace=wrap;rounded=0;" vertex="1" parent="1">
          <mxGeometry x="165" y="2160" width="180" height="30" as="geometry" />
        </mxCell>
        <mxCell id="SeXQM4YsFDkqSfDYHbvO-105" value="Delete&lt;br&gt;Event Date checkbox" style="rounded=0;whiteSpace=wrap;html=1;" vertex="1" parent="1">
          <mxGeometry x="215" y="2370" width="180" height="50" as="geometry" />
        </mxCell>
        <mxCell id="SeXQM4YsFDkqSfDYHbvO-107" value="" style="shape=flexArrow;endArrow=classic;html=1;" edge="1" parent="1">
          <mxGeometry width="50" height="50" relative="1" as="geometry">
            <mxPoint x="665" y="960" as="sourcePoint" />
            <mxPoint x="650" y="2230" as="targetPoint" />
            <Array as="points">
              <mxPoint x="750" y="960" />
              <mxPoint x="750" y="2230" />
            </Array>
          </mxGeometry>
        </mxCell>
      </root>
    </mxGraphModel>
  </diagram>
</mxfile>
